<?xml version="1.0" encoding="utf-8"?>
<!-- Generator: Adobe Illustrator 16.0.3, SVG Export Plug-In . SVG Version: 6.00 Build 0)  -->
<!DOCTYPE svg PUBLIC "-//W3C//DTD SVG 1.1//EN" "http://www.w3.org/Graphics/SVG/1.1/DTD/svg11.dtd">
<svg version="1.1" id="Layer_1" xmlns:sketch="http://www.bohemiancoding.com/sketch/ns"
	 xmlns="http://www.w3.org/2000/svg" xmlns:xlink="http://www.w3.org/1999/xlink" x="0px" y="0px" width="60px" height="60px"
	 viewBox="0 0 60 60" enable-background="new 0 0 60 60" xml:space="preserve">
<title></title>
<path d="M30-0.211c-16.568,0-30,13.432-30,30c0,16.568,13.432,30,30,30s30-13.432,30-30C60,13.22,46.568-0.211,30-0.211z
	 M47.308,17.673L30,32.673l-17.308-15H47.308z M11.539,18.827L24.23,29.789L11.539,40.751V18.827z M12.692,41.904l12.633-10.892
	L30,34.851l4.602-3.838l12.706,10.892H12.692z M48.461,40.751L35.77,29.789l12.691-10.962V40.751z"/>
</svg>
