<?xml version="1.0" encoding="utf-8"?>
<!-- Generator: Adobe Illustrator 16.0.3, SVG Export Plug-In . SVG Version: 6.00 Build 0)  -->
<!DOCTYPE svg PUBLIC "-//W3C//DTD SVG 1.1//EN" "http://www.w3.org/Graphics/SVG/1.1/DTD/svg11.dtd">
<svg version="1.1" id="Layer_1" xmlns="http://www.w3.org/2000/svg" xmlns:xlink="http://www.w3.org/1999/xlink" x="0px" y="0px"
	 width="100px" height="100px" viewBox="0 0 100 100" enable-background="new 0 0 100 100" xml:space="preserve">
<path d="M50.25,1C23.326,1,1.5,22.826,1.5,49.75c0,26.923,21.826,48.75,48.75,48.75C77.173,98.5,99,76.673,99,49.75
	C99,22.826,77.173,1,50.25,1z M34.766,73.661H20.212V33.637h14.554V73.661z M27.489,28.904c-4.364,0-7.277-2.915-7.277-6.553
	c0-3.994,2.913-6.907,7.277-6.907c4.363,0,7.276,2.914,7.276,6.553C34.766,25.99,31.853,28.904,27.489,28.904z M71.151,73.661V51.83
	c0-5.828-4.008-7.278-5.089-7.278c-1.094,0-5.827,0.726-5.827,7.278c0,0.725,0,21.831,0,21.831H45.681V33.637h14.554v5.827
	c2.188-3.283,5.827-5.827,12.734-5.827c6.908,0,12.734,5.458,12.734,18.193v21.831H71.151z"/>
</svg>
